<?xml version="1.0" encoding="utf-8"?>
<!-- Generator: Adobe Illustrator 24.3.0, SVG Export Plug-In . SVG Version: 6.00 Build 0)  -->
<svg version="1.1" id="Layer_1" xmlns="http://www.w3.org/2000/svg" xmlns:xlink="http://www.w3.org/1999/xlink" x="0px" y="0px"
	 viewBox="0 0 1428.44 738.5" style="enable-background:new 0 0 1428.44 738.5;" xml:space="preserve">
<g>
	<g>
		<g>
			<g>
				<g>
					<path style="fill:#0D6670;" d="M1428.44,733.39c-0.13,1.53-0.25,3.09-0.34,4.62c-16.35,0-32.75,1.19-48.85-0.25
						c-162.24-14.75-307.19-69.15-419.13-191.94c-60.29-65.97-97.66-144.61-105.16-234.99c-2.75-32.54-0.42-65.38-0.42-102.71
						c-39.62,33.22-65.67,71.69-86.69,113.3c-18.77,36.9-35.42,75.17-53.64,115.12c-18.18-39.96-34.83-78.22-53.6-115.12
						c-21.02-41.61-47.07-80.08-86.69-113.3c0,37.33,2.33,70.17-0.42,102.71c-7.54,90.38-44.91,169.02-105.16,234.99
						C356.38,668.61,211.43,723.01,49.19,737.76c-16.1,1.44-32.54,0.25-48.85,0.25c-0.08-1.53-0.25-3.09-0.34-4.62
						c4.11-1.44,8.18-3.09,12.46-4.24c101.1-24.24,196.39-62.07,281.81-122.2c103.55-72.92,181.68-165.16,213.12-290.83
						c20.97-83.72,12.46-162.19-40.59-234.22c-3.64-4.96-7.46-9.75-11.31-14.49C468.07,45.51,478.79,22.67,487.6,0
						c8.94,6.31,17.8,12.67,26.61,19.15c82.88,61.01,150.71,135.37,199.73,226.39c0.04,0.13,0.17,0.21,0.25,0.38
						c0.13-0.17,0.25-0.25,0.3-0.38c48.98-91.01,116.86-165.37,199.73-226.39C923,12.67,931.9,6.31,940.84,0
						c8.81,22.67,19.49,45.51,32.12,67.41c-3.86,4.75-7.67,9.53-11.31,14.49c-53.05,72.03-61.56,150.5-40.59,234.22
						c31.4,125.67,109.53,217.91,213.12,290.83c85.42,60.12,180.71,97.96,281.76,122.2C1420.22,730.3,1424.33,731.95,1428.44,733.39
						z"/>
				</g>
			</g>
		</g>
		<g>
			<circle style="fill:#0A4A52;" cx="714.21" cy="630.36" r="108.14"/>
		</g>
	</g>
</g>
<g>
</g>
<g>
</g>
<g>
</g>
<g>
</g>
<g>
</g>
<g>
</g>
<g>
</g>
<g>
</g>
<g>
</g>
<g>
</g>
<g>
</g>
<g>
</g>
<g>
</g>
<g>
</g>
<g>
</g>
</svg>
