<?xml version="1.0" encoding="utf-8"?>
<!-- Generator: Adobe Illustrator 24.3.0, SVG Export Plug-In . SVG Version: 6.00 Build 0)  -->
<svg version="1.1" id="Layer_1" xmlns="http://www.w3.org/2000/svg" xmlns:xlink="http://www.w3.org/1999/xlink" x="0px" y="0px"
	 viewBox="0 0 1083.38 738.5" style="enable-background:new 0 0 1083.38 738.5;" xml:space="preserve">
<g style="opacity:0.3;">
	<g>
		<g>
			<g>
				<g>
					<path style="fill:#0D6670;" d="M978.78,448.82c-0.08,0.93-0.16,1.89-0.21,2.83c-10.01,0-20.04,0.73-29.9-0.16
						c-99.29-9.02-187.99-42.32-256.5-117.46c-36.9-40.37-59.77-88.5-64.36-143.81c-1.69-19.91-0.26-40.01-0.26-62.85
						c-24.24,20.33-40.19,43.87-53.05,69.34c-11.49,22.58-21.68,46-32.83,70.45c-11.12-24.45-21.31-47.87-32.8-70.45
						c-12.86-25.46-28.81-49.01-53.05-69.34c0,22.84,1.43,42.94-0.26,62.85c-4.62,55.31-27.49,103.43-64.36,143.81
						c-68.51,75.15-157.21,108.44-256.5,117.46c-9.85,0.88-19.91,0.16-29.9,0.16c-0.05-0.93-0.16-1.89-0.21-2.83
						c2.52-0.88,5-1.89,7.62-2.59c61.87-14.83,120.19-37.99,172.46-74.78c63.37-44.63,111.19-101.07,130.43-177.98
						c12.84-51.24,7.62-99.26-24.84-143.34c-2.23-3.03-4.56-5.96-6.92-8.87C391.05,27.85,397.61,13.87,403,0
						c5.47,3.86,10.89,7.75,16.28,11.72c50.72,37.34,92.23,82.85,122.23,138.54c0.03,0.08,0.1,0.13,0.16,0.23
						c0.08-0.1,0.16-0.16,0.18-0.23c29.97-55.7,71.51-101.2,122.23-138.54C669.46,7.75,674.9,3.86,680.38,0
						c5.39,13.87,11.93,27.85,19.66,41.25c-2.36,2.9-4.69,5.83-6.92,8.87c-32.46,44.08-37.68,92.1-24.84,143.34
						c19.21,76.91,67.03,133.36,130.43,177.98c52.27,36.79,110.59,59.95,172.43,74.78C973.75,446.93,976.26,447.94,978.78,448.82z"
						/>
				</g>
			</g>
		</g>
		<g>
			<circle style="fill:#0A4A52;" cx="541.68" cy="385.77" r="66.18"/>
		</g>
	</g>
	<g>
		<path style="fill:#0A4A52;" d="M39.46,603.5v129.36H0V535.58h39.46l56.37,78.63l56.37-78.63h39.46v197.28h-39.46V603.5
			l-36.64,50.73H76.09L39.46,603.5z"/>
		<path style="fill:#0A4A52;" d="M285.22,535.58h39.46l79.47,197.28h-42.84l-16.91-42.27h-79.19l-16.91,42.27h-42.56L285.22,535.58z
			 M281.27,651.13h47.35l-23.67-58.9L281.27,651.13z"/>
		<path style="fill:#0A4A52;" d="M457.7,693.41h101.46v39.46H418.25V535.58h39.46V693.41z"/>
		<path style="fill:#0A4A52;" d="M705.72,535.58h39.46v122.59c0,44.25-36.07,80.32-80.32,80.32s-80.32-36.07-80.32-80.32V535.58
			h39.46v122.59c0,22.55,18.32,40.87,40.86,40.87c22.55,0,40.87-18.32,40.87-40.87V535.58z"/>
		<path style="fill:#0A4A52;" d="M815.64,614.49h93v39.46h-93v39.46h93v39.46H776.18V535.58h132.46v39.46h-93V614.49z"/>
		<path style="fill:#0A4A52;" d="M981.92,693.41h101.46v39.46H942.47V535.58h39.46V693.41z"/>
	</g>
</g>
<g>
</g>
<g>
</g>
<g>
</g>
<g>
</g>
<g>
</g>
<g>
</g>
<g>
</g>
<g>
</g>
<g>
</g>
<g>
</g>
<g>
</g>
<g>
</g>
<g>
</g>
<g>
</g>
<g>
</g>
</svg>
